<?xml version="1.0" encoding="UTF-8"?>
<svg id="Camada_2" data-name="Camada 2" xmlns="http://www.w3.org/2000/svg" xmlns:xlink="http://www.w3.org/1999/xlink" viewBox="0 0 1858.88 868.27">
  <defs>
    <style>
      .cls-1 {
        fill: #325068;
      }

      .cls-2 {
        fill: url(#Gradiente_sem_nome_262);
      }

      .cls-3 {
        fill: url(#Gradiente_sem_nome_117);
        fill-rule: evenodd;
      }
    </style>
    <linearGradient id="Gradiente_sem_nome_262" data-name="Gradiente sem nome 262" x1="1115.33" y1="124.93" x2="1115.33" y2="686.12" gradientUnits="userSpaceOnUse">
      <stop offset=".41" stop-color="#325068"/>
      <stop offset=".51" stop-color="#325068" stop-opacity=".93"/>
      <stop offset=".64" stop-color="#325068" stop-opacity=".75"/>
      <stop offset=".81" stop-color="#325068" stop-opacity=".45"/>
      <stop offset=".99" stop-color="#325068" stop-opacity=".03"/>
      <stop offset="1" stop-color="#325068" stop-opacity="0"/>
    </linearGradient>
    <linearGradient id="Gradiente_sem_nome_117" data-name="Gradiente sem nome 117" x1="0" y1="434.13" x2="1858.88" y2="434.13" gradientUnits="userSpaceOnUse">
      <stop offset="0" stop-color="#407bf2"/>
      <stop offset="1" stop-color="#937ddf"/>
    </linearGradient>
  </defs>
  <g id="Camada_1-2" data-name="Camada 1">
    <g id="ISOTIPO_LIGHT" data-name="ISOTIPO LIGHT">
      <polygon class="cls-1" points="451.76 868.27 623.62 868.27 717.49 665.05 773.01 541.9 794.85 494.58 690.4 376.94 451.76 868.27"/>
      <polygon class="cls-2" points="1012.3 0 873.49 0 823.54 102.83 923.64 215.57 943.56 172.42 1114.1 541.9 1170.95 665.05 1239.22 812.87 1407.13 812.87 1012.3 0"/>
      <path class="cls-3" d="M1785.91,193.38c-47.57-71.4-115.08-127-194.26-159.68-79.18-32.93-166.46-41.7-250.44-24.9-48.72,9.73-95.25,27.69-137.54,52.85l55.2,111.61c32.27-20.57,68.26-35.15,106.26-42.6,60.07-11.91,122.45-5.79,178.71,17.45,56.51,23.58,104.99,63.38,138.91,114.09,34,51.05,52.04,110.86,52.04,171.92s-18.04,120.88-52.04,171.92c-33.92,50.72-82.4,90.51-138.91,114.09-56.26,23.25-118.64,29.37-178.71,17.45-59.49-11.66-114.09-40.71-157.11-83.07L742.3,130c-.66-.99-1.57-1.9-2.57-2.56-60.39-60.73-138-101.85-222.06-118.64-83.97-16.8-171.26-8.03-250.44,24.9-79.18,32.68-146.69,88.28-194.26,159.68C25.15,264.45,0,348.51,0,434.13s25.15,169.69,72.97,240.76c47.57,71.4,115.08,127,194.26,159.68,32.15,13.37,65.64,22.68,99.69,27.99l57.87-119.15c-37.59-1.02-74.85-8.84-109.75-23.26-56.51-23.58-104.99-63.38-138.91-114.09-34.01-51.05-52.04-110.86-52.04-171.92s18.04-120.88,52.04-171.92c33.92-50.72,82.4-90.51,138.91-114.09,56.26-23.25,118.64-29.37,178.7-17.45,59.49,11.66,114.09,40.71,157.11,83.07l20.17,22.71h0s120.69,135.93,120.69,135.93l324.86,365.89c.66.99,1.57,1.9,2.57,2.56,60.39,60.73,138,101.85,222.06,118.64,83.98,16.79,171.26,8.02,250.44-24.91,79.18-32.68,146.69-88.28,194.26-159.68,47.82-71.07,72.97-155.13,72.97-240.76s-25.15-169.69-72.97-240.76Z"/>
    </g>
  </g>
</svg>