<?xml version="1.0" encoding="UTF-8"?>
<svg id="Camada_2" data-name="Camada 2" xmlns="http://www.w3.org/2000/svg" xmlns:xlink="http://www.w3.org/1999/xlink" viewBox="0 0 5601.57 1311.92">
  <defs>
    <style>
      .cls-1 {
        letter-spacing: .17em;
      }

      .cls-2 {
        font-family: Halfre-Regular, Halfre;
        font-size: 1124.04px;
      }

      .cls-2, .cls-3 {
        fill: #f6f6f6;
      }

      .cls-4 {
        letter-spacing: .2em;
      }

      .cls-5 {
        fill: #fff;
      }

      .cls-6 {
        fill: url(#Gradiente_sem_nome_205);
      }

      .cls-7 {
        fill: #9999bf;
        font-family: DMSans-SemiBold, 'DM Sans';
        font-size: 170.47px;
        font-weight: 600;
      }

      .cls-8 {
        letter-spacing: .2em;
      }

      .cls-9 {
        letter-spacing: .13em;
      }

      .cls-10 {
        letter-spacing: .13em;
      }

      .cls-11 {
        letter-spacing: -.04em;
      }

      .cls-12 {
        fill: url(#Gradiente_sem_nome_117);
        fill-rule: evenodd;
      }
    </style>
    <linearGradient id="Gradiente_sem_nome_205" data-name="Gradiente sem nome 205" x1="979.79" y1="289.86" x2="979.79" y2="782.85" gradientUnits="userSpaceOnUse">
      <stop offset=".41" stop-color="#fff"/>
      <stop offset=".46" stop-color="#fff" stop-opacity=".97"/>
      <stop offset=".54" stop-color="#fff" stop-opacity=".9"/>
      <stop offset=".63" stop-color="#fff" stop-opacity=".77"/>
      <stop offset=".73" stop-color="#fff" stop-opacity=".6"/>
      <stop offset=".84" stop-color="#fff" stop-opacity=".38"/>
      <stop offset=".95" stop-color="#fff" stop-opacity=".12"/>
      <stop offset="1" stop-color="#fff" stop-opacity="0"/>
    </linearGradient>
    <linearGradient id="Gradiente_sem_nome_117" data-name="Gradiente sem nome 117" x1="0" y1="561.48" x2="1632.97" y2="561.48" gradientUnits="userSpaceOnUse">
      <stop offset="0" stop-color="#407bf2"/>
      <stop offset="1" stop-color="#937ddf"/>
    </linearGradient>
  </defs>
  <g id="Camada_1-2" data-name="Camada 1">
    <g id="LOGO_DARK" data-name="LOGO DARK">
      <text class="cls-2" transform="translate(1849.28 943.62)"><tspan class="cls-11" x="0" y="0">A</tspan><tspan x="687.91" y="0">stenir</tspan></text>
      <text class="cls-7" transform="translate(1863.73 1266.24)"><tspan class="cls-8" x="0" y="0">ME</tspan><tspan class="cls-10" x="315.54" y="0">T</tspan><tspan class="cls-8" x="436.91" y="0">A API INTEGR</tspan><tspan class="cls-9" x="1916.75" y="0">A</tspan><tspan class="cls-1" x="2056.71" y="0">T</tspan><tspan class="cls-4" x="2186.27" y="0" xml:space="preserve">OR  - BSP</tspan></text>
      <g>
        <path class="cls-3" d="M5535.68,137.11c-13.03,0-25.77,3.86-36.61,11.1-10.84,7.24-19.28,17.53-24.27,29.57-4.99,12.04-6.29,25.29-3.75,38.07,2.54,12.78,8.82,24.52,18.03,33.74,9.22,9.21,20.96,15.49,33.74,18.03,12.78,2.54,26.03,1.24,38.07-3.75,12.04-4.99,22.33-13.43,29.57-24.27,7.24-10.84,11.1-23.57,11.1-36.61,0-17.48-6.94-34.24-19.3-46.59-12.36-12.36-29.12-19.3-46.59-19.3h0ZM5535.68,255.72c-10.42,0-20.62-3.09-29.28-8.88-8.67-5.79-15.43-14.03-19.42-23.66-3.99-9.63-5.03-20.23-3-30.46,2.03-10.22,7.05-19.62,14.43-26.99,7.37-7.37,16.76-12.39,26.99-14.43,10.22-2.03,20.82-.99,30.46,3,9.63,3.99,17.86,10.75,23.66,19.42,5.79,8.67,8.88,18.86,8.88,29.29,0,13.98-5.55,27.39-15.44,37.27-9.89,9.88-23.29,15.44-37.27,15.44h0Z"/>
        <path class="cls-3" d="M5562.04,189.83c0-5.24-2.08-10.27-5.79-13.98-3.71-3.71-8.74-5.79-13.98-5.79h-32.95v65.89h13.18v-26.36h9.62l17.59,26.36h15.81l-18.12-27.15c4.18-1.12,7.87-3.59,10.52-7.02,2.64-3.43,4.09-7.63,4.11-11.96h0ZM5542.27,196.42h-19.77v-13.18h19.77c1.75,0,3.43.7,4.66,1.93,1.24,1.24,1.93,2.91,1.93,4.66s-.69,3.42-1.93,4.66c-1.24,1.24-2.91,1.93-4.66,1.93h0Z"/>
      </g>
      <polygon class="cls-5" points="396.86 942.86 547.83 942.86 630.29 764.34 679.07 656.15 698.25 614.59 606.5 511.24 396.86 942.86"/>
      <polygon class="cls-6" points="889.28 180.11 767.33 180.11 723.46 270.44 811.39 369.48 828.89 331.58 978.7 656.15 1028.64 764.34 1088.62 894.19 1236.12 894.19 889.28 180.11"/>
      <path class="cls-12" d="M1568.87,349.99c-41.79-62.72-101.1-111.57-170.65-140.27-69.55-28.93-146.23-36.63-220-21.88-42.8,8.55-83.67,24.33-120.83,46.43l48.49,98.05c28.35-18.07,59.96-30.87,93.34-37.42,52.77-10.47,107.57-5.09,156.99,15.33,49.64,20.71,92.23,55.67,122.03,100.23,29.87,44.84,45.72,97.39,45.72,151.03s-15.84,106.19-45.72,151.03c-29.8,44.55-72.39,79.51-122.03,100.23-49.42,20.42-104.22,25.8-156.99,15.33-52.26-10.25-100.23-35.76-138.02-72.97l-409.12-460.79c-.58-.87-1.38-1.67-2.25-2.25-53.06-53.35-121.23-89.47-195.07-104.22-73.77-14.76-150.45-7.05-220,21.88-69.56,28.71-128.86,77.55-170.65,140.27C22.1,412.42,0,486.26,0,561.48s22.1,149.07,64.11,211.5c41.79,62.72,101.09,111.57,170.65,140.27,28.24,11.74,57.66,19.93,87.58,24.59l50.84-104.67c-33.03-.9-65.75-7.77-96.41-20.43-49.64-20.71-92.23-55.67-122.03-100.23-29.87-44.84-45.72-97.39-45.72-151.03s15.84-106.19,45.72-151.03c29.8-44.55,72.39-79.51,122.03-100.23,49.42-20.42,104.22-25.8,156.99-15.33,52.26,10.25,100.23,35.76,138.02,72.97l17.72,19.95h0s106.02,119.41,106.02,119.41l285.38,321.43c.58.87,1.38,1.67,2.25,2.25,53.06,53.35,121.23,89.47,195.07,104.22,73.77,14.75,150.45,7.05,220-21.88,69.55-28.71,128.86-77.55,170.65-140.27,42.01-62.43,64.1-136.27,64.1-211.5s-22.09-149.06-64.1-211.5Z"/>
    </g>
  </g>
</svg>